<svg version="1.1" id="Layer_1" xmlns="http://www.w3.org/2000/svg" xmlns:xlink="http://www.w3.org/1999/xlink" x="0px" y="0px"
	 width="100%" viewBox="0 0 225 225" enable-background="new 0 0 225 225" xml:space="preserve" >
<path fill="#000000" opacity="1.000000" stroke="none" 
	d="
M226.000000,2.000000 
	C226.000000,76.593712 226.000000,151.187424 226.000000,226.000000 
	C151.645920,226.000000 77.291618,226.000000 2.357215,225.783554 
	C1.576456,225.298080 1.317418,225.109039 1.000000,225.000000 
	C1.000000,150.406296 1.000000,75.812576 1.000000,1.000000 
	C75.354088,1.000000 149.708389,1.000000 224.643158,1.216257 
	C225.423111,1.702782 225.681915,1.891944 226.000000,2.000000 
M134.883652,35.677238 
	C134.065308,36.043285 133.246948,36.409332 132.126572,36.240929 
	C132.000290,36.079926 131.874008,35.918926 131.183319,35.296463 
	C117.753250,33.071991 104.399872,32.809830 91.163345,36.646328 
	C52.211746,47.936134 28.934647,86.825806 36.086452,128.723038 
	C43.227562,170.557587 86.557732,199.640350 128.180969,191.377045 
	C159.486954,185.161972 188.586761,157.641098 192.343246,121.280693 
	C195.811890,87.706505 177.840286,54.858665 146.847198,40.932350 
	C143.272202,39.325974 139.696182,37.721882 136.661865,35.968853 
	C136.672058,35.722404 136.682266,35.475956 136.692459,35.229507 
	C136.303543,35.308395 135.914612,35.387283 134.883652,35.677238 
z"/>
<path fill="#070707" opacity="1.000000" stroke="none" 
	d="
M226.000000,1.500000 
	C225.681915,1.891944 225.423111,1.702782 225.111816,1.216257 
	C225.333328,1.000000 225.666672,1.000000 226.000000,1.500000 
z"/>
<path fill="#070707" opacity="1.000000" stroke="none" 
	d="
M1.000000,225.500000 
	C1.317418,225.109039 1.576456,225.298080 1.888557,225.783554 
	C1.666667,226.000000 1.333333,226.000000 1.000000,225.500000 
z"/>
<path fill="#F1F1F1" opacity="1.000000" stroke="none" 
	d="
M136.120636,36.116734 
	C139.696182,37.721882 143.272202,39.325974 146.847198,40.932350 
	C177.840286,54.858665 195.811890,87.706505 192.343246,121.280693 
	C188.586761,157.641098 159.486954,185.161972 128.180969,191.377045 
	C86.557732,199.640350 43.227562,170.557587 36.086452,128.723038 
	C28.934647,86.825806 52.211746,47.936134 91.163345,36.646328 
	C104.399872,32.809830 117.753250,33.071991 131.215195,35.538136 
	C130.996414,35.986076 130.745758,36.192345 130.120453,36.463905 
	C125.853554,37.697159 121.961311,38.865120 117.927444,39.963596 
	C117.454117,39.646130 117.122429,39.398144 116.345802,38.742096 
	C111.278404,38.715866 106.655960,39.097698 101.647415,39.399288 
	C99.969040,39.524899 98.655930,39.644176 97.387596,39.949482 
	C75.781799,45.150188 59.403000,57.195633 48.689102,77.213959 
	C33.161774,106.808838 38.112629,142.150558 60.200058,165.162567 
	C65.222908,170.395676 70.030357,173.639679 77.161621,170.398651 
	C78.325066,169.869888 79.706085,168.444977 79.856171,167.287674 
	C80.737022,160.495331 89.201958,155.599030 95.766724,158.137878 
	C94.598396,158.509094 93.853935,158.835205 93.093391,159.118088 
	C84.600746,162.276855 81.807007,167.919235 84.395584,176.426910 
	C84.942085,178.223068 85.065590,180.147903 85.404541,182.133835 
	C94.715248,186.439041 108.621460,188.958023 118.163467,187.705826 
	C119.526772,187.526917 120.710571,185.980148 122.028893,184.730591 
	C124.016235,182.939636 125.952126,181.484528 128.248138,180.089722 
	C133.045502,176.108475 137.482758,172.066940 142.162537,167.913788 
	C142.608643,167.517151 142.812225,167.232086 143.387451,166.894989 
	C146.186478,164.088882 145.477203,162.069992 142.195709,160.912308 
	C138.198578,159.502167 134.139526,158.267532 129.915329,156.556213 
	C129.781433,155.846100 129.795731,155.282120 129.903732,155.263580 
	C139.881561,153.549988 150.989441,159.737778 154.052841,168.904831 
	C154.439560,170.062073 153.565582,171.640594 152.987793,174.397949 
	C155.589996,173.301147 157.904984,172.843506 159.567459,171.548309 
	C194.130219,144.620865 197.594971,92.143570 166.972565,60.633915 
	C159.666351,53.116016 159.669525,53.122929 150.376465,57.393421 
	C149.642181,57.730850 148.821289,57.879761 148.054901,57.892784 
	C148.069183,57.669289 148.062286,57.221439 148.323288,56.895847 
	C149.227905,55.700104 149.871521,54.829948 150.747131,53.646149 
	C140.856354,53.034073 131.465897,52.452961 122.075455,51.871845 
	C122.066330,51.607735 122.057205,51.343620 122.048080,51.079510 
	C125.815842,49.900684 129.583618,48.721855 133.751068,47.417976 
	C130.077805,46.678791 126.905762,46.040466 122.750153,45.204220 
	C126.114487,42.172955 128.761368,39.788120 131.610291,37.359509 
	C132.066177,37.190823 132.271591,37.010708 132.428604,36.775383 
	C133.246948,36.409332 134.065308,36.043285 135.348297,35.739029 
	C135.812927,35.800816 136.120636,36.116734 136.120636,36.116734 
M133.789627,183.233841 
	C135.702682,182.317474 137.740570,180.435181 139.505737,180.663300 
	C145.115585,181.388199 146.678421,180.692184 148.468414,174.488724 
	C141.225204,178.578705 132.408859,178.877899 126.926674,185.541931 
	C127.157089,185.977051 127.387505,186.412186 127.617920,186.847321 
	C129.479477,185.818192 131.341019,184.789047 133.789627,183.233841 
z"/>
<path fill="#F1F1F1" opacity="1.000000" stroke="none" 
	d="
M135.669312,35.633492 
	C135.914612,35.387283 136.303543,35.308395 136.692459,35.229507 
	C136.682266,35.475956 136.672058,35.722404 136.391251,36.042793 
	C136.120636,36.116734 135.812927,35.800816 135.669312,35.633492 
z"/>
<path fill="#040404" opacity="1.000000" stroke="none" 
	d="
M102.033508,39.479530 
	C106.655960,39.097698 111.278404,38.715866 115.932213,38.864838 
	C112.902275,41.554958 109.840981,43.714268 106.779686,45.873581 
	C107.128441,46.359203 107.477203,46.844826 107.825958,47.330452 
	C111.240334,44.897995 114.654701,42.465538 118.069077,40.033081 
	C121.961311,38.865120 125.853554,37.697159 130.343719,36.719624 
	C131.097183,37.074463 131.252701,37.238876 131.408234,37.403286 
	C128.761368,39.788120 126.114487,42.172955 122.750153,45.204220 
	C126.905762,46.040466 130.077805,46.678791 133.751068,47.417976 
	C129.583618,48.721855 125.815842,49.900684 122.048080,51.079510 
	C122.057205,51.343620 122.066330,51.607735 122.075455,51.871845 
	C131.465897,52.452961 140.856354,53.034073 150.747131,53.646149 
	C149.871521,54.829948 149.227905,55.700104 148.028564,57.031639 
	C145.762115,58.984726 144.051361,60.476433 142.062378,62.210758 
	C146.838196,63.847374 151.158951,65.328041 156.373581,67.115028 
	C154.472092,68.525810 153.675232,69.117027 152.827515,69.745979 
	C157.176804,72.354355 161.234116,74.787628 165.668243,77.446884 
	C163.412888,78.626495 161.704681,79.519936 159.829025,80.500954 
	C161.147385,82.943275 162.463211,85.062447 163.459030,87.322609 
	C164.314880,89.265045 164.805328,91.368484 165.759659,94.343018 
	C167.167587,95.094231 169.820602,96.509766 173.483383,98.464058 
	C170.023773,91.932419 167.148193,86.503426 164.185837,80.910583 
	C167.850525,79.837166 171.322327,78.820251 175.599274,77.567505 
	C170.156845,74.582191 165.592941,72.078773 160.253967,69.150200 
	C162.463867,68.920685 163.763123,68.785751 165.062363,68.650818 
	C165.177109,68.175255 165.291870,67.699692 165.406631,67.224129 
	C159.918457,64.846954 154.414719,62.504066 148.968231,60.034935 
	C148.471252,59.809628 148.341125,58.775055 148.040634,58.116283 
	C148.821289,57.879761 149.642181,57.730850 150.376465,57.393421 
	C159.669525,53.122929 159.666351,53.116016 166.972565,60.633915 
	C197.594971,92.143570 194.130219,144.620865 159.567459,171.548309 
	C157.904984,172.843506 155.589996,173.301147 152.987793,174.397949 
	C153.565582,171.640594 154.439560,170.062073 154.052841,168.904831 
	C150.989441,159.737778 139.881561,153.549988 129.903732,155.263580 
	C129.795731,155.282120 129.781433,155.846100 129.663467,156.668213 
	C129.394302,157.474899 129.185089,157.768829 128.642960,157.938232 
	C127.396431,159.044479 126.172806,161.464569 125.617661,161.319870 
	C120.680229,160.032944 118.517937,164.647003 114.939583,166.107788 
	C112.513885,167.098022 110.861290,167.542404 108.763931,165.678864 
	C105.800598,163.045914 102.685532,160.560806 99.453117,158.269547 
	C98.632095,157.687576 97.122314,158.077255 95.968163,158.038055 
	C96.007309,158.055634 96.183121,158.072678 96.183121,158.072678 
	C89.201958,155.599030 80.737022,160.495331 79.856171,167.287674 
	C79.706085,168.444977 78.325066,169.869888 77.161621,170.398651 
	C70.030357,173.639679 65.222908,170.395676 60.200058,165.162567 
	C38.112629,142.150558 33.161774,106.808838 49.043636,77.212906 
	C50.146046,76.985565 50.618626,76.974945 51.443203,76.990982 
	C52.434807,77.068436 53.074417,77.119240 53.954082,77.189102 
	C53.030743,78.044456 52.320061,78.702805 51.267693,79.677681 
	C62.739922,79.982880 64.418282,79.643768 67.732758,76.435196 
	C65.816277,75.857697 63.944248,75.293594 63.040245,75.021187 
	C69.292686,69.769470 75.656876,64.423882 82.141235,59.296295 
	C82.714508,59.679989 83.167618,59.845688 83.832306,60.310577 
	C93.346565,59.216084 100.548096,50.893917 101.000549,40.964096 
	C100.949585,40.972603 100.951744,41.075924 101.369759,41.087357 
	C101.874603,40.547989 101.961426,39.997192 102.031189,39.444782 
	C102.014114,39.443172 102.033508,39.479530 102.033508,39.479530 
M146.277481,127.907684 
	C146.090851,127.938049 145.904236,127.968407 145.805588,127.132530 
	C146.776611,121.049492 147.763504,114.970749 143.968170,109.371262 
	C143.466461,108.631058 143.134125,107.776031 141.979614,105.522446 
	C141.436844,109.006454 141.126480,110.998627 140.427170,112.985367 
	C140.427170,112.985367 140.038376,112.997154 139.585800,112.442451 
	C139.099747,111.085197 138.613693,109.727943 138.017593,108.063400 
	C135.439621,109.508743 133.181946,110.774506 130.997116,111.999428 
	C134.293518,113.069778 137.470169,114.101242 140.580414,115.072037 
	C140.580414,115.072037 140.502930,115.026390 140.770004,115.729416 
	C141.544617,116.969971 142.319229,118.210533 143.235840,119.678520 
	C142.331894,121.161438 141.369781,122.739784 140.656036,123.910683 
	C139.109940,122.534531 137.992416,121.539841 136.448746,120.165855 
	C135.747818,122.179039 135.650818,123.291275 135.061218,123.984573 
	C133.658676,125.633759 132.123627,128.135391 130.450989,128.295471 
	C129.019257,128.432495 127.213020,125.896622 125.768120,124.359016 
	C123.705406,122.163933 121.821304,119.801003 120.234718,117.080795 
	C120.297081,116.708260 120.359444,116.335732 120.421799,115.963196 
	C120.218559,116.458450 120.015320,116.953705 119.172760,117.173813 
	C115.740425,114.364166 112.308090,111.554520 108.875755,108.744873 
	C108.736488,108.955063 108.597221,109.165253 108.457954,109.375443 
	C109.745598,112.244011 111.033241,115.112579 112.320877,117.981155 
	C110.180870,117.579872 108.847778,116.321861 107.269005,115.781006 
	C105.655029,115.228104 103.800079,115.378639 101.386871,115.044548 
	C101.003258,115.208458 100.619644,115.372368 100.236031,115.536285 
	C100.827980,115.682884 101.419930,115.829483 101.951393,116.724442 
	C101.840378,119.829010 101.676163,122.912399 98.941505,125.073517 
	C97.388443,126.300835 95.690376,128.665009 94.335564,128.480148 
	C92.733383,128.261551 91.287086,125.955864 90.057281,124.338837 
	C89.411957,123.490318 89.373520,122.180237 88.616402,119.511131 
	C86.557716,121.660538 85.185074,123.093666 83.952454,124.380600 
	C81.794846,120.753517 79.456482,116.822556 77.094109,112.298271 
	C76.858162,112.006943 76.622215,111.715622 76.386269,111.424301 
	C76.399055,112.109665 76.411842,112.795029 76.522614,114.269569 
	C76.662888,118.177048 76.803154,122.084534 76.324959,125.989822 
	C75.915909,125.948769 75.506851,125.907722 75.078720,125.177032 
	C74.426628,124.101013 73.774544,123.025002 72.995308,121.278893 
	C72.717171,120.504082 72.439034,119.729271 72.251625,118.399727 
	C72.060349,117.301727 71.869080,116.203728 71.635513,114.626480 
	C71.044319,114.744385 70.453133,114.862289 69.192490,115.471230 
	C68.963760,118.248695 68.735031,121.026169 68.032753,124.073517 
	C68.643204,124.825516 69.253654,125.577515 69.905495,126.942917 
	C70.618584,128.122849 71.331665,129.302795 72.236191,131.171982 
	C74.817459,133.014481 77.398727,134.856979 80.663414,136.799942 
	C81.098999,136.891418 81.534584,136.982880 81.972969,137.813156 
	C84.712296,141.627609 87.069771,145.814392 90.311440,149.139023 
	C92.917496,151.811798 96.768532,153.219116 99.762192,155.575378 
	C108.055542,162.102966 116.223251,162.180283 124.583351,155.781204 
	C126.153290,154.579514 128.001709,153.737686 129.736557,152.756195 
	C135.506561,149.491852 140.565796,145.617386 142.535858,138.814804 
	C142.758850,138.044769 143.943771,137.528473 144.723282,136.949188 
	C146.873947,135.350952 149.046173,133.781738 151.801147,131.802399 
	C155.997391,125.445244 156.509583,118.887177 152.741943,114.634789 
	C152.179306,116.172966 151.704254,117.471710 151.058945,119.386017 
	C151.286392,119.916336 151.513840,120.446663 151.675659,121.698502 
	C150.244873,123.452629 148.814102,125.206749 147.042221,127.137535 
	C146.935196,127.373001 146.869080,127.619446 146.277481,127.907684 
M126.918213,103.514755 
	C123.221725,101.098366 119.525238,98.681984 115.828751,96.265594 
	C115.587471,96.673347 115.346191,97.081100 115.104912,97.488853 
	C115.852188,98.560371 116.599464,99.631889 117.488586,100.906815 
	C116.269508,101.043617 115.305801,101.151756 114.182175,101.277847 
	C116.406822,105.482750 118.453926,109.352081 120.586266,113.382507 
	C124.319069,111.160728 127.506989,109.263268 131.025604,107.168976 
	C129.636337,105.928787 128.541397,104.951340 126.918213,103.514755 
M94.052399,109.380821 
	C96.203629,110.372757 98.354851,111.364693 100.506081,112.356628 
	C100.676888,111.990913 100.847702,111.625198 101.018517,111.259483 
	C97.264954,107.032753 93.511391,102.806023 89.757820,98.579292 
	C91.166580,102.102791 87.971100,107.217361 94.052399,109.380821 
M82.654984,111.802818 
	C82.654984,113.187653 82.654984,114.572479 82.654984,115.746941 
	C85.834282,114.479332 88.669472,113.348923 91.687439,112.145645 
	C89.833496,111.267715 87.804039,110.047310 85.605583,109.408463 
	C84.851906,109.189445 83.675240,110.426079 82.654984,111.802818 
M63.737038,86.062218 
	C64.195030,85.229881 64.653023,84.397545 65.845695,82.230042 
	C63.068020,83.453926 60.778049,83.731224 60.073853,84.935669 
	C58.857738,87.015694 58.626587,89.671585 57.982185,92.085869 
	C58.563198,92.228180 59.144215,92.370483 59.725227,92.512794 
	C60.911957,90.563583 62.098686,88.614380 63.737038,86.062218 
M58.028378,108.555046 
	C56.645451,109.749985 55.262520,110.944923 52.814308,113.060333 
	C56.702919,112.771492 58.976757,112.602600 61.204624,112.437119 
	C61.398052,110.189919 61.570297,108.188850 61.803646,105.477898 
	C60.330860,106.647369 59.448627,107.347916 58.028378,108.555046 
M126.484459,119.873962 
	C125.930328,119.060677 125.376198,118.247391 124.822067,117.434113 
	C124.438004,117.843315 124.053940,118.252518 123.669876,118.661720 
	C124.458496,119.212303 125.247116,119.762886 126.484459,119.873962 
M126.531288,112.569298 
	C126.469696,112.816704 126.408104,113.064110 126.346497,113.311516 
	C126.502121,113.151588 126.657745,112.991669 126.531288,112.569298 
M128.787384,112.209686 
	C128.653992,112.034691 128.520615,111.859695 128.387222,111.684700 
	C128.417694,111.928047 128.448151,112.171394 128.787384,112.209686 
M83.398750,62.479408 
	C83.398750,62.479408 83.523224,62.401199 83.398750,62.479408 
z"/>
<path fill="#F6F6F6" opacity="1.000000" stroke="none" 
	d="
M95.929016,158.020462 
	C97.122314,158.077255 98.632095,157.687576 99.453117,158.269547 
	C102.685532,160.560806 105.800598,163.045914 108.763931,165.678864 
	C110.861290,167.542404 112.513885,167.098022 114.939583,166.107788 
	C118.517937,164.647003 120.680229,160.032944 125.617661,161.319870 
	C126.172806,161.464569 127.396431,159.044479 128.602432,158.354416 
	C129.019073,160.373550 129.018417,161.875381 129.289688,163.326340 
	C130.342773,168.958740 129.834305,175.496979 127.888023,180.029404 
	C125.952126,181.484528 124.016235,182.939636 121.606834,184.671310 
	C120.160934,185.106720 119.184647,185.244949 118.216782,185.427750 
	C111.305405,186.733124 104.632202,186.074127 98.514191,182.482880 
	C91.652412,178.455063 91.001457,170.515320 97.010452,166.223145 
	C96.653717,163.488602 96.291367,160.754532 95.929016,158.020462 
z"/>
<path fill="#0B0B0B" opacity="1.000000" stroke="none" 
	d="
M51.091206,76.964325 
	C50.618626,76.974945 50.146046,76.985565 49.318932,76.997238 
	C59.403000,57.195633 75.781799,45.150188 97.387596,39.949482 
	C98.655930,39.644176 99.969040,39.524899 101.647415,39.399292 
	C102.033508,39.479530 102.014114,39.443172 101.689819,39.600460 
	C101.227600,40.197140 101.089676,40.636532 100.951752,41.075924 
	C100.951744,41.075924 100.949585,40.972603 100.649689,40.927517 
	C96.159882,45.338661 91.908455,49.739365 87.811195,54.279213 
	C86.233810,56.026981 85.007164,58.091293 83.620712,60.011383 
	C83.167618,59.845688 82.714508,59.679989 82.205742,58.883003 
	C82.623283,54.997219 83.096489,51.742729 83.686218,48.254944 
	C83.742043,47.768253 83.681343,47.514847 83.620651,47.261444 
	C83.373817,47.466049 83.126991,47.670654 82.550034,47.953312 
	C77.665771,52.917770 73.111626,57.804176 68.500908,62.751286 
	C69.012764,63.233360 69.747551,63.925400 70.072617,64.231552 
	C63.705574,67.992401 57.351898,71.731575 51.038895,75.538200 
	C50.841469,75.657234 51.064297,76.473244 51.091206,76.964325 
z"/>
<path fill="#101010" opacity="1.000000" stroke="none" 
	d="
M95.968163,158.038055 
	C96.291367,160.754532 96.653717,163.488602 97.010452,166.223145 
	C91.001457,170.515320 91.652412,178.455063 98.514191,182.482880 
	C104.632202,186.074127 111.305405,186.733124 118.216782,185.427750 
	C119.184647,185.244949 120.160934,185.106720 121.555389,185.007141 
	C120.710571,185.980148 119.526772,187.526917 118.163467,187.705826 
	C108.621460,188.958023 94.715248,186.439041 85.404541,182.133835 
	C85.065590,180.147903 84.942085,178.223068 84.395584,176.426910 
	C81.807007,167.919235 84.600746,162.276855 93.093391,159.118088 
	C93.853935,158.835205 94.598396,158.509094 95.766724,158.137878 
	C96.183121,158.072678 96.007309,158.055634 95.968163,158.038055 
z"/>
<path fill="#EAEAEA" opacity="1.000000" stroke="none" 
	d="
M148.054901,57.892784 
	C148.341125,58.775055 148.471252,59.809628 148.968231,60.034935 
	C154.414719,62.504066 159.918457,64.846954 165.406631,67.224129 
	C165.291870,67.699692 165.177109,68.175255 165.062363,68.650818 
	C163.763123,68.785751 162.463867,68.920685 160.253967,69.150200 
	C165.592941,72.078773 170.156845,74.582191 175.599274,77.567505 
	C171.322327,78.820251 167.850525,79.837166 164.185837,80.910583 
	C167.148193,86.503426 170.023773,91.932419 173.483383,98.464058 
	C169.820602,96.509766 167.167587,95.094231 165.759659,94.343018 
	C164.805328,91.368484 164.314880,89.265045 163.459030,87.322609 
	C162.463211,85.062447 161.147385,82.943275 159.829025,80.500954 
	C161.704681,79.519936 163.412888,78.626495 165.668243,77.446884 
	C161.234116,74.787628 157.176804,72.354355 152.827515,69.745979 
	C153.675232,69.117027 154.472092,68.525810 156.373581,67.115028 
	C151.158951,65.328041 146.838196,63.847374 142.062378,62.210758 
	C144.051361,60.476433 145.762115,58.984726 147.767578,57.357231 
	C148.062286,57.221439 148.069183,57.669289 148.054901,57.892784 
z"/>
<path fill="#0F0F0F" opacity="1.000000" stroke="none" 
	d="
M128.248138,180.089722 
	C129.834305,175.496979 130.342773,168.958740 129.289688,163.326340 
	C129.018417,161.875381 129.019073,160.373550 128.935333,158.478912 
	C129.185089,157.768829 129.394302,157.474899 129.855392,157.068985 
	C134.139526,158.267532 138.198578,159.502167 142.195709,160.912308 
	C145.477203,162.069992 146.186478,164.088882 143.316177,166.535919 
	C140.643234,164.862900 138.413223,163.496902 135.446960,161.679932 
	C135.822205,164.609741 136.033585,166.260117 136.122772,166.956482 
	C138.412033,167.378586 140.166031,167.701981 141.920013,168.025391 
	C137.482758,172.066940 133.045502,176.108475 128.248138,180.089722 
M132.605667,162.408661 
	C133.269455,162.571625 133.933228,162.734589 134.597015,162.897552 
	C134.632446,162.699707 134.667877,162.501877 134.703308,162.304047 
	C134.174896,162.246597 133.646500,162.189163 132.605667,162.408661 
z"/>
<path fill="#101010" opacity="1.000000" stroke="none" 
	d="
M133.496094,183.496887 
	C131.341019,184.789047 129.479477,185.818192 127.617920,186.847321 
	C127.387505,186.412186 127.157089,185.977051 126.926674,185.541931 
	C132.408859,178.877899 141.225204,178.578705 148.468414,174.488724 
	C146.678421,180.692184 145.115585,181.388199 139.505737,180.663300 
	C137.740570,180.435181 135.702682,182.317474 133.496094,183.496887 
z"/>
<path fill="#DEDEDE" opacity="1.000000" stroke="none" 
	d="
M117.927444,39.963600 
	C114.654701,42.465538 111.240334,44.897995 107.825958,47.330452 
	C107.477203,46.844826 107.128441,46.359203 106.779686,45.873581 
	C109.840981,43.714268 112.902275,41.554958 116.377159,39.272903 
	C117.122429,39.398144 117.454117,39.646130 117.927444,39.963600 
z"/>
<path fill="#D8D8D8" opacity="1.000000" stroke="none" 
	d="
M142.162537,167.913788 
	C140.166031,167.701981 138.412033,167.378586 136.122772,166.956482 
	C136.033585,166.260117 135.822205,164.609741 135.446960,161.679932 
	C138.413223,163.496902 140.643234,164.862900 142.944519,166.587967 
	C142.812225,167.232086 142.608643,167.517151 142.162537,167.913788 
z"/>
<path fill="#040404" opacity="1.000000" stroke="none" 
	d="
M130.718384,36.654331 
	C130.745758,36.192345 130.996414,35.986076 131.497406,35.768867 
	C131.874008,35.918926 132.000290,36.079926 132.277588,36.508156 
	C132.271591,37.010708 132.066177,37.190823 131.610291,37.359509 
	C131.252701,37.238876 131.097183,37.074463 130.718384,36.654331 
z"/>
<path fill="#F9F9F9" opacity="1.000000" stroke="none" 
	d="
M119.860916,117.509758 
	C121.821304,119.801003 123.705406,122.163933 125.768120,124.359016 
	C127.213020,125.896622 129.019257,128.432495 130.450989,128.295471 
	C132.123627,128.135391 133.658676,125.633759 135.061218,123.984573 
	C135.650818,123.291275 135.747818,122.179039 136.448746,120.165855 
	C137.992416,121.539841 139.109940,122.534531 140.656036,123.910683 
	C141.369781,122.739784 142.331894,121.161438 143.235840,119.678520 
	C142.319229,118.210533 141.544617,116.969971 140.788925,115.058998 
	C140.810608,113.922653 140.813370,113.456726 140.816132,112.990799 
	C141.126480,110.998627 141.436844,109.006454 141.979614,105.522446 
	C143.134125,107.776031 143.466461,108.631058 143.968170,109.371262 
	C147.763504,114.970749 146.776611,121.049492 145.490524,127.783813 
	C145.175461,129.301178 145.175461,130.167236 145.175461,131.180008 
	C146.266190,130.668671 147.109146,130.273499 148.098297,130.174469 
	C149.150269,130.966949 150.056046,131.463318 151.023697,132.020172 
	C151.085571,132.080658 151.209885,132.201050 151.209885,132.201050 
	C149.046173,133.781738 146.873947,135.350952 144.723282,136.949188 
	C143.943771,137.528473 142.758850,138.044769 142.535858,138.814804 
	C140.565796,145.617386 135.506561,149.491852 129.736557,152.756195 
	C128.001709,153.737686 126.153290,154.579514 124.583351,155.781204 
	C116.223251,162.180283 108.055542,162.102966 99.762192,155.575378 
	C96.768532,153.219116 92.917496,151.811798 90.311440,149.139023 
	C87.069771,145.814392 84.712296,141.627609 81.980049,137.146683 
	C81.707626,136.122238 81.428123,135.764282 81.148621,135.406311 
	C80.759087,135.837372 80.369545,136.268433 79.979996,136.699478 
	C77.398727,134.856979 74.817459,133.014481 72.389862,130.720169 
	C72.699028,130.175781 72.854530,130.083221 73.384140,129.995010 
	C74.507111,129.998764 75.255981,129.998154 76.308380,130.015808 
	C77.013672,130.053482 77.415421,130.072906 78.206055,130.220215 
	C78.704643,129.602386 78.814362,128.856689 78.904114,127.768173 
	C78.237244,126.947586 77.590340,126.469795 76.943428,125.992012 
	C76.803154,122.084534 76.662888,118.177048 76.649940,113.731247 
	C76.777267,113.192932 77.118111,112.891594 77.118111,112.891594 
	C79.456482,116.822556 81.794846,120.753517 83.952454,124.380600 
	C85.185074,123.093666 86.557716,121.660538 88.616402,119.511131 
	C89.373520,122.180237 89.411957,123.490318 90.057281,124.338837 
	C91.287086,125.955864 92.733383,128.261551 94.335564,128.480148 
	C95.690376,128.665009 97.388443,126.300835 98.941505,125.073517 
	C101.676163,122.912399 101.840378,119.829010 102.050110,116.164566 
	C102.148827,115.604698 102.050613,115.221252 102.050613,115.221252 
	C103.800079,115.378639 105.655029,115.228104 107.269005,115.781006 
	C108.847778,116.321861 110.180870,117.579872 112.320877,117.981155 
	C111.033241,115.112579 109.745598,112.244011 108.457954,109.375443 
	C108.597221,109.165253 108.736488,108.955063 108.875755,108.744873 
	C112.308090,111.554520 115.740425,114.364166 119.551338,117.288162 
	C119.929916,117.402504 119.860916,117.509758 119.860916,117.509758 
M79.479362,131.959061 
	C79.608070,131.768066 79.736786,131.577072 79.865494,131.386078 
	C79.577652,131.416534 79.289810,131.446991 79.479362,131.959061 
z"/>
<path fill="#F0F0F0" opacity="1.000000" stroke="none" 
	d="
M51.443203,76.990982 
	C51.064297,76.473244 50.841469,75.657234 51.038895,75.538200 
	C57.351898,71.731575 63.705574,67.992401 70.072617,64.231552 
	C69.747551,63.925400 69.012764,63.233360 68.500908,62.751286 
	C73.111626,57.804176 77.665771,52.917770 82.715904,48.113892 
	C83.211891,48.196415 83.569695,48.488235 83.569695,48.488235 
	C83.096489,51.742729 82.623283,54.997219 82.085571,58.665009 
	C75.656876,64.423882 69.292686,69.769470 63.040245,75.021187 
	C63.944248,75.293594 65.816277,75.857697 67.732758,76.435196 
	C64.418282,79.643768 62.739922,79.982880 51.267693,79.677681 
	C52.320061,78.702805 53.030743,78.044456 53.954082,77.189102 
	C53.074417,77.119240 52.434807,77.068436 51.443203,76.990982 
z"/>
<path fill="#F3F3F3" opacity="1.000000" stroke="none" 
	d="
M127.182335,103.744324 
	C128.541397,104.951340 129.636337,105.928787 131.025604,107.168976 
	C127.506989,109.263268 124.319069,111.160728 120.586266,113.382507 
	C118.453926,109.352081 116.406822,105.482750 114.182175,101.277847 
	C115.305801,101.151756 116.269508,101.043617 117.488586,100.906815 
	C116.599464,99.631889 115.852188,98.560371 115.104912,97.488853 
	C115.346191,97.081100 115.587471,96.673347 115.828751,96.265594 
	C119.525238,98.681984 123.221725,101.098366 127.182335,103.744324 
z"/>
<path fill="#EFEFEF" opacity="1.000000" stroke="none" 
	d="
M83.832298,60.310577 
	C85.007164,58.091293 86.233810,56.026981 87.811195,54.279213 
	C91.908455,49.739365 96.159882,45.338661 100.700653,40.919006 
	C100.548096,50.893917 93.346565,59.216084 83.832298,60.310577 
z"/>
<path fill="#F9F9F9" opacity="1.000000" stroke="none" 
	d="
M151.229218,118.770454 
	C151.704254,117.471710 152.179306,116.172966 152.741943,114.634789 
	C156.509583,118.887177 155.997391,125.445244 151.505524,132.001724 
	C151.209885,132.201050 151.085571,132.080658 151.026794,131.659256 
	C150.255920,130.476868 149.543808,129.715881 148.878983,128.570648 
	C148.411942,127.777885 147.897629,127.369377 147.383316,126.960869 
	C148.814102,125.206749 150.244873,123.452629 152.048782,121.301987 
	C152.024338,120.193802 151.626770,119.482132 151.229218,118.770454 
z"/>
<path fill="#E2E2E2" opacity="1.000000" stroke="none" 
	d="
M93.704224,109.218628 
	C87.971100,107.217361 91.166580,102.102791 89.757820,98.579292 
	C93.511391,102.806023 97.264954,107.032753 101.018517,111.259483 
	C100.847702,111.625198 100.676888,111.990913 100.506081,112.356628 
	C98.354851,111.364693 96.203629,110.372757 93.704224,109.218628 
z"/>
<path fill="#F9F9F9" opacity="1.000000" stroke="none" 
	d="
M71.677803,115.105728 
	C71.869080,116.203728 72.060349,117.301727 71.842445,118.724365 
	C71.029617,119.637344 70.625961,120.225693 70.222305,120.814041 
	C71.189026,121.192352 72.155739,121.570671 73.122452,121.948982 
	C73.774544,123.025002 74.426628,124.101013 75.069756,125.877136 
	C75.043198,127.051208 75.025597,127.525177 74.688614,128.042389 
	C73.916168,128.720642 73.463097,129.355652 73.010033,129.990646 
	C72.854530,130.083221 72.699028,130.175781 72.294144,130.375549 
	C71.331665,129.302795 70.618584,128.122849 69.896500,126.243912 
	C69.427094,124.964478 68.966698,124.384056 68.506302,123.803635 
	C68.735031,121.026169 68.963760,118.248695 69.980698,115.264076 
	C71.071877,115.073196 71.374840,115.089462 71.677803,115.105728 
z"/>
<path fill="#EFEFEF" opacity="1.000000" stroke="none" 
	d="
M82.673401,111.400246 
	C83.675240,110.426079 84.851906,109.189445 85.605583,109.408463 
	C87.804039,110.047310 89.833496,111.267715 91.687439,112.145645 
	C88.669472,113.348923 85.834282,114.479332 82.654984,115.746941 
	C82.654984,114.572479 82.654984,113.187653 82.673401,111.400246 
z"/>
<path fill="#DEDEDE" opacity="1.000000" stroke="none" 
	d="
M63.511227,86.363693 
	C62.098686,88.614380 60.911957,90.563583 59.725227,92.512794 
	C59.144215,92.370483 58.563198,92.228180 57.982185,92.085869 
	C58.626587,89.671585 58.857738,87.015694 60.073853,84.935669 
	C60.778049,83.731224 63.068020,83.453926 65.845695,82.230042 
	C64.653023,84.397545 64.195030,85.229881 63.511227,86.363693 
z"/>
<path fill="#CCCCCC" opacity="1.000000" stroke="none" 
	d="
M58.297386,108.301750 
	C59.448627,107.347916 60.330860,106.647369 61.803646,105.477898 
	C61.570297,108.188850 61.398052,110.189919 61.204624,112.437119 
	C58.976757,112.602600 56.702919,112.771492 52.814308,113.060333 
	C55.262520,110.944923 56.645451,109.749985 58.297386,108.301750 
z"/>
<path fill="#CBCBCB" opacity="1.000000" stroke="none" 
	d="
M140.646805,115.132698 
	C137.470169,114.101242 134.293518,113.069778 130.997116,111.999428 
	C133.181946,110.774506 135.439621,109.508743 138.017593,108.063400 
	C138.613693,109.727943 139.099747,111.085197 139.822800,113.097534 
	C140.255463,114.212646 140.451141,114.672676 140.646805,115.132698 
z"/>
<path fill="#ADADAD" opacity="1.000000" stroke="none" 
	d="
M75.008003,127.999138 
	C75.025597,127.525177 75.043198,127.051208 75.079300,126.221962 
	C75.506851,125.907722 75.915909,125.948769 76.634193,125.990921 
	C77.590340,126.469795 78.237244,126.947586 78.574051,127.829193 
	C78.115021,128.852783 77.966095,129.472565 77.817169,130.092331 
	C77.415421,130.072906 77.013672,130.053482 76.270035,129.723907 
	C75.621445,128.942215 75.314728,128.470673 75.008003,127.999138 
z"/>
<path fill="#EBEBEB" opacity="1.000000" stroke="none" 
	d="
M73.058884,121.613937 
	C72.155739,121.570671 71.189026,121.192352 70.222305,120.814041 
	C70.625961,120.225693 71.029617,119.637344 71.797081,119.001732 
	C72.439034,119.729271 72.717171,120.504082 73.058884,121.613937 
z"/>
<path fill="#0E0E0E" opacity="1.000000" stroke="none" 
	d="
M126.260101,120.093719 
	C125.247116,119.762886 124.458496,119.212303 123.669876,118.661720 
	C124.053940,118.252518 124.438004,117.843315 124.822067,117.434113 
	C125.376198,118.247391 125.930328,119.060677 126.260101,120.093719 
z"/>
<path fill="#626262" opacity="1.000000" stroke="none" 
	d="
M147.952103,129.878326 
	C147.109146,130.273499 146.266190,130.668671 145.175461,131.180008 
	C145.175461,130.167236 145.175461,129.301178 145.446533,128.216934 
	C145.904236,127.968407 146.090851,127.938049 146.671387,128.144806 
	C147.352341,128.589294 147.639359,128.796677 147.951233,129.222076 
	C147.976074,129.440109 147.952103,129.878326 147.952103,129.878326 
z"/>
<path fill="#EBEBEB" opacity="1.000000" stroke="none" 
	d="
M68.269531,123.938576 
	C68.966698,124.384056 69.427094,124.964478 69.875809,125.937202 
	C69.253654,125.577515 68.643204,124.825516 68.269531,123.938576 
z"/>
<path fill="#EBEBEB" opacity="1.000000" stroke="none" 
	d="
M80.321709,136.749710 
	C80.369545,136.268433 80.759087,135.837372 81.148621,135.406311 
	C81.428123,135.764282 81.707626,136.122238 81.978653,136.777283 
	C81.534584,136.982880 81.098999,136.891418 80.321709,136.749710 
z"/>
<path fill="#626262" opacity="1.000000" stroke="none" 
	d="
M151.144073,119.078232 
	C151.626770,119.482132 152.024338,120.193802 152.081604,120.941238 
	C151.513840,120.446663 151.286392,119.916336 151.144073,119.078232 
z"/>
<path fill="#ADADAD" opacity="1.000000" stroke="none" 
	d="
M147.926392,129.004044 
	C147.639359,128.796677 147.352341,128.589294 146.954590,128.129395 
	C146.869080,127.619446 146.935196,127.373001 147.212769,127.049202 
	C147.897629,127.369377 148.411942,127.777885 148.653290,128.588287 
	C148.380325,128.990189 147.926392,129.004044 147.926392,129.004044 
z"/>
<path fill="#EBEBEB" opacity="1.000000" stroke="none" 
	d="
M71.656662,114.866104 
	C71.374840,115.089462 71.071877,115.073196 70.315422,115.018555 
	C70.453133,114.862289 71.044319,114.744385 71.656662,114.866104 
z"/>
<path fill="#0E0E0E" opacity="1.000000" stroke="none" 
	d="
M119.870995,117.425735 
	C120.015320,116.953705 120.218559,116.458450 120.421806,115.963196 
	C120.359444,116.335732 120.297081,116.708260 120.047821,117.295273 
	C119.860916,117.509758 119.929916,117.402504 119.870995,117.425735 
z"/>
<path fill="#CCCCCC" opacity="1.000000" stroke="none" 
	d="
M101.718742,115.132904 
	C102.050613,115.221252 102.148827,115.604698 102.080353,115.790390 
	C101.419930,115.829483 100.827980,115.682884 100.236023,115.536285 
	C100.619644,115.372368 101.003258,115.208458 101.718742,115.132904 
z"/>
<path fill="#0E0E0E" opacity="1.000000" stroke="none" 
	d="
M140.613617,115.102371 
	C140.451141,114.672676 140.255463,114.212646 140.049088,113.374893 
	C140.038376,112.997154 140.427170,112.985367 140.621643,112.988083 
	C140.813370,113.456726 140.810608,113.922653 140.655396,114.707489 
	C140.502930,115.026390 140.580414,115.072037 140.613617,115.102371 
z"/>
<path fill="#0E0E0E" opacity="1.000000" stroke="none" 
	d="
M126.672333,112.700523 
	C126.657745,112.991669 126.502121,113.151588 126.346497,113.311516 
	C126.408104,113.064110 126.469696,112.816704 126.672333,112.700523 
z"/>
<path fill="#0E0E0E" opacity="1.000000" stroke="none" 
	d="
M128.632996,112.312210 
	C128.448151,112.171394 128.417694,111.928047 128.387222,111.684700 
	C128.520615,111.859695 128.653992,112.034691 128.632996,112.312210 
z"/>
<path fill="#F9F9F9" opacity="1.000000" stroke="none" 
	d="
M76.600952,113.336662 
	C76.411842,112.795029 76.399055,112.109665 76.386269,111.424301 
	C76.622215,111.715622 76.858162,112.006943 77.106110,112.594933 
	C77.118111,112.891594 76.777267,113.192932 76.600952,113.336662 
z"/>
<path fill="#0B0B0B" opacity="1.000000" stroke="none" 
	d="
M83.460983,62.440304 
	C83.523224,62.401199 83.398750,62.479408 83.460983,62.440304 
z"/>
<path fill="#EFEFEF" opacity="1.000000" stroke="none" 
	d="
M101.369766,41.087357 
	C101.089676,40.636532 101.227600,40.197140 101.706894,39.602070 
	C101.961426,39.997192 101.874603,40.547989 101.369766,41.087357 
z"/>
<path fill="#F0F0F0" opacity="1.000000" stroke="none" 
	d="
M83.046021,48.035835 
	C83.126991,47.670654 83.373817,47.466049 83.620651,47.261444 
	C83.681343,47.514847 83.742043,47.768253 83.686218,48.254944 
	C83.569695,48.488235 83.211891,48.196415 83.046021,48.035835 
z"/>
<path fill="#D8D8D8" opacity="1.000000" stroke="none" 
	d="
M132.861877,162.270203 
	C133.646500,162.189163 134.174896,162.246597 134.703308,162.304047 
	C134.667877,162.501877 134.632446,162.699707 134.597015,162.897552 
	C133.933228,162.734589 133.269455,162.571625 132.861877,162.270203 
z"/>
<path fill="#EAEAEA" opacity="1.000000" stroke="none" 
	d="
M147.951233,129.222076 
	C147.926392,129.004044 148.380325,128.990189 148.606018,128.972534 
	C149.543808,129.715881 150.255920,130.476868 150.964920,131.598770 
	C150.056046,131.463318 149.150269,130.966949 148.098297,130.174469 
	C147.952103,129.878326 147.976074,129.440109 147.951233,129.222076 
z"/>
<path fill="#EBEBEB" opacity="1.000000" stroke="none" 
	d="
M74.688614,128.042389 
	C75.314728,128.470673 75.621445,128.942215 75.966507,129.705658 
	C75.255981,129.998154 74.507111,129.998764 73.384140,129.995010 
	C73.463097,129.355652 73.916168,128.720642 74.688614,128.042389 
z"/>
<path fill="#101010" opacity="1.000000" stroke="none" 
	d="
M78.206055,130.220215 
	C77.966095,129.472565 78.115021,128.852783 78.594009,128.171997 
	C78.814362,128.856689 78.704643,129.602386 78.206055,130.220215 
z"/>
<path fill="#CBCBCB" opacity="1.000000" stroke="none" 
	d="
M79.240662,131.718262 
	C79.289810,131.446991 79.577652,131.416534 79.865494,131.386078 
	C79.736786,131.577072 79.608070,131.768066 79.240662,131.718262 
z"/>
</svg>